<?xml version="1.0" encoding="UTF-8" standalone="no"?>
<svg viewBox="0 0 24 24" version="1.1" xmlns="http://www.w3.org/2000/svg">
  <path d="M6,2H18A2,2 0 0,1 20,4V20A2,2 0 0,1 18,22H6A2,2 0 0,1 4,20V4A2,2 0 0,1 6,2M12,4A4,4 0 0,0 8,8A4,4 0 0,0 12,12A4,4 0 0,0 16,8A4,4 0 0,0 12,4M12,5.5A2.5,2.5 0 0,1 14.5,8A2.5,2.5 0 0,1 12,10.5A2.5,2.5 0 0,1 9.5,8A2.5,2.5 0 0,1 12,5.5M7,15.25A1.25,1.25 0 0,0 5.75,16.5A1.25,1.25 0 0,0 7,17.75A1.25,1.25 0 0,0 8.25,16.5A1.25,1.25 0 0,0 7,15.25M7,18.75A1.25,1.25 0 0,0 5.75,20A1.25,1.25 0 0,0 7,21.25A1.25,1.25 0 0,0 8.25,20A1.25,1.25 0 0,0 7,18.75Z" />
</svg>
